<?xml version="1.0" encoding="UTF-8" standalone="no"?><!DOCTYPE svg PUBLIC "-//W3C//DTD SVG 1.1//EN" "http://www.w3.org/Graphics/SVG/1.1/DTD/svg11.dtd"><svg width="100%" height="100%" viewBox="0 0 600 218" version="1.1" xmlns="http://www.w3.org/2000/svg" xmlns:xlink="http://www.w3.org/1999/xlink" xml:space="preserve" style="fill-rule:evenodd;clip-rule:evenodd;stroke-linejoin:round;stroke-miterlimit:1.41421;"><g><path d="M334.372,187.327l16.262,0l0,8.315l-3.017,0l0,16.411c0,3.456 -2.429,5.885 -5.96,5.885l-15.232,0c-3.533,0 -5.888,-2.429 -5.888,-5.885l0,-38.339c0,-3.531 2.355,-5.96 5.888,-5.96l21.265,0l0,8.83l-16.63,0c-0.293,0 -0.589,0.366 -0.589,0.81l0,30.979c0,0.439 0.296,0.737 0.589,0.737l6.843,0c0.442,0 0.664,-0.298 0.664,-0.737l0,-12.731l-4.195,0l0,-8.315Z" style="fill:#fff;fill-rule:nonzero;"/><path d="M374.342,168.047l9.859,0l0,41.063l11.848,0l0,8.608l-21.707,0l0,-49.671Z" style="fill:#fff;fill-rule:nonzero;"/><path d="M435.722,176.879c0,-0.442 -0.368,-0.81 -0.588,-0.81l-7.136,0c-0.369,0 -0.515,0.514 -0.515,0.81l0,31.933c0,0.298 0.217,0.664 0.515,0.664l7.136,0c0.22,0 0.588,-0.295 0.588,-0.664l0,-31.933Zm4.562,-9.125c3.165,0 5.372,2.208 5.372,5.371l0,39.443c0,3.163 -2.207,5.37 -5.372,5.37l-17.365,0c-3.236,0 -5.372,-2.207 -5.372,-5.37l0,-39.443c0,-3.163 2.136,-5.371 5.372,-5.371l17.365,0Z" style="fill:#fff;fill-rule:nonzero;"/><path d="M489.967,197.557c0,-0.589 -0.368,-1.033 -1.029,-1.033l-7.432,0l0,13.099l7.432,0c0.661,0 1.029,-0.442 1.029,-0.957l0,-11.109Zm0,-20.163c0,-0.661 -0.368,-1.104 -1.029,-1.104l-7.432,0l0,12.51l7.432,0c0.661,0 1.029,-0.443 1.029,-1.105l0,-10.301Zm-18.395,40.324l0,-49.671l22.59,0c3.312,0 5.592,2.283 5.592,5.445l0,12.879c0,3.679 -2.206,5.887 -5.664,6.548c3.458,0.737 5.739,3.02 5.739,6.329l0,12.952c0,3.309 -2.281,5.518 -5.593,5.518l-22.664,0Z" style="fill:#fff;fill-rule:nonzero;"/><path d="M542.518,195.789l0,-18.248c0,-0.737 -0.587,-1.176 -1.322,-1.176l-5.299,0c-0.737,0 -1.251,0.514 -1.251,1.176l0,18.248l7.872,0Zm9.863,21.929l-9.863,0l0,-13.687l-7.872,0l0,13.687l-9.861,0l0,-44.297c0,-3.166 2.136,-5.374 5.299,-5.374l16.925,0c3.163,0 5.372,2.208 5.372,5.374l0,44.297Z" style="fill:#fff;fill-rule:nonzero;"/><path d="M578.293,168.047l9.86,0l0,41.063l11.847,0l0,8.608l-21.707,0l0,-49.671Z" style="fill:#fff;fill-rule:nonzero;"/><path d="M56.614,0c-25.505,0 -56.614,20.004 -56.614,53.126l0,24.94l32.385,5.71l0,-26.404c0.131,-4.552 2.46,-24.987 33.858,-24.987l80.794,0l5.711,-32.385l-96.134,0Z" style="fill:#e33661;fill-rule:nonzero;"/><path d="M52.186,128.129l37.245,0c1.028,0 1.618,-0.589 1.618,-1.325l0,-14.429c0,-0.737 -0.59,-1.324 -1.618,-1.324l-25.615,0c-6.92,0 -11.63,-4.711 -11.63,-11.631l0,-37.539c0,-6.919 4.71,-11.63 11.63,-11.63l51.378,0l0,21.347l-35.921,0c-0.883,0 -1.472,0.735 -1.472,1.618l0,14.574c0,0.589 0.589,1.325 1.472,1.325l25.613,0c6.922,0 11.63,4.712 11.63,11.63l0,37.246c0,6.92 -4.708,11.629 -11.63,11.629l-52.7,0l0,-21.491Z" style="fill:#fff;fill-rule:nonzero;"/><path d="M188.647,102.659c0.737,0 1.323,-0.737 1.323,-1.324l0,-28.266c0,-0.735 -0.586,-1.472 -1.323,-1.472l-19.433,0l0,31.062l19.433,0Zm15.75,-52.408c6.038,0 11.191,4.857 11.191,11.188l0,51.083c0,5.889 -5.153,11.189 -11.191,11.189l-35.183,0l0,25.91l-25.617,0l0,-99.37l60.8,0Z" style="fill:#fff;fill-rule:nonzero;"/><path d="M288.304,103.395l0,-29.884c0,-1.767 -1.471,-2.944 -3.534,-2.944l-15.899,0c-1.767,0 -3.09,1.324 -3.09,2.944l0,29.884l22.523,0Zm25.615,46.225l-25.615,0l0,-24.732l-22.523,0l0,24.732l-25.618,0l0,-87.739c0,-6.919 4.713,-11.63 11.63,-11.63l50.496,0c6.92,0 11.63,4.711 11.63,11.63l0,87.739Z" style="fill:#fff;fill-rule:nonzero;"/><path d="M390.905,73.069c0,-0.736 -0.736,-1.472 -1.325,-1.472l-21.198,0l0,26.498l21.198,0c0.589,0 1.325,-0.735 1.325,-1.325l0,-23.701Zm14.281,-22.819c6.036,0 11.186,4.858 11.186,11.189l0,45.489c0,6.035 -5.15,11.188 -11.186,11.188l-0.737,0l12.218,31.505l-25.025,0l-12.367,-31.505l-10.893,0l0,31.505l-25.615,0l0,-99.371l62.419,0Z" style="fill:#fff;fill-rule:nonzero;"/><path d="M505.576,50.251l0,21.493l-22.523,0l0,77.876l-25.615,0l0,-77.876l-22.523,0l0,-21.493l70.661,0Z" style="fill:#fff;fill-rule:nonzero;"/><path d="M573.29,103.395l0,-29.884c0,-1.767 -1.471,-2.944 -3.533,-2.944l-15.9,0c-1.767,0 -3.09,1.324 -3.09,2.944l0,29.884l22.523,0Zm25.615,46.225l-25.615,0l0,-24.732l-22.523,0l0,24.732l-25.617,0l0,-87.739c0,-6.919 4.712,-11.63 11.629,-11.63l50.496,0c6.92,0 11.63,4.711 11.63,11.63l0,87.739Z" style="fill:#fff;fill-rule:nonzero;"/></g></svg>